<svg xmlns="http://www.w3.org/2000/svg" version="1.1" xmlns:xlink="http://www.w3.org/1999/xlink" xmlns:svgjs="http://svgjs.dev/svgjs" viewBox="0 0 7.112621554702438 6.1127252700462"><g transform="matrix(1,0,0,1,3.5572694209742406,5.4070415723172705)"><g transform="matrix(1,0,0,1,0,0)"><path d=" M -2.3740688022728262 -0.32697612773585744 Q -2.3724744300649494 -0.3281835950284789 -2.3683567089063025 -0.3244028051031289 Q -2.364238987747655 -0.32062201517777894 -2.366026812413159 -0.3180136281349084 Q -2.40260386810061 -0.2702420989858731 -2.4019832004510753 -0.22304448493951667 Q -2.4013625328015404 -0.17584687089316026 -2.363931046730275 -0.12642133244898462 L -2.345819037340953 -0.10250574933083514 Q -2.3277070279516314 -0.07859016621268564 -2.308891337552083 -0.07527809815958866 Q -2.290075647152535 -0.07196603010649175 -2.2685516223462003 -0.08826683855688142 L -2.096359423895524 -0.21867330615999872 L -2.1398282464298966 -0.2760707056435575 Q -2.1748447979159184 -0.32230749967197986 -2.2096009892591315 -0.33424513609272855 Q -2.244357180602344 -0.3461827725134773 -2.273055880344123 -0.32444836124629106 Q -2.274650252552 -0.3232408939536696 -2.2782726544298644 -0.32802401057729946 Q -2.2818950563077287 -0.3328071272009294 -2.2803006840998523 -0.33401459449355086 L -2.207153014995155 -0.38815717020388885 Q -2.1816430596691285 -0.40747664688583213 -2.1694918156524263 -0.41793357133074205 L -2.127844685790006 -0.45072864068914903 Q -2.1254531274781914 -0.45253984162808125 -2.1218307256003266 -0.4477567250044513 Q -2.1182083237224623 -0.44297360838082145 -2.1205998820342775 -0.4411624074418892 Q -2.1524873261918103 -0.4170130615894601 -2.1522035897755725 -0.377713958627101 Q -2.151919853359335 -0.33841485566474194 -2.1169033018733128 -0.29217806163631954 L -2.074038212985251 -0.2355778482566991 L -1.9034403867424514 -0.36477684856719494 Q -1.8787276175203635 -0.38349259160282756 -1.8715996951317746 -0.39892608512899497 Q -1.8644717727431857 -0.4143595786551625 -1.872970796338392 -0.4355200748196698 Q -1.881469819933598 -0.45668057098417714 -1.9098453013102021 -0.494148317869278 Q -1.9110527686028236 -0.49574269007715466 -1.9062696519791937 -0.499365091955019 Q -1.901486535355564 -0.5029874938328833 -1.9002790680629424 -0.5013931216250067 Q -1.8755259885642026 -0.46870849136353576 -1.8624373008029942 -0.44976947732664374 L -1.801653654983238 -0.36785276107862475 L -1.7555764454059952 -0.3086675369295617 Q -1.7427045863758424 -0.2933275484971061 -1.7215739087549669 -0.265426034859265 Q -1.7197627078160347 -0.2630344765474501 -1.7245458244396645 -0.2594120746695857 Q -1.7293289410632944 -0.2557896727917214 -1.7311401420022265 -0.2581812311035363 Q -1.752270819623102 -0.2860827447413774 -1.7659164884837653 -0.2958190541728368 Q -1.7795621573444287 -0.30555536360429625 -1.7944418909062432 -0.3011857493044514 Q -1.8093216244680579 -0.2968161350046066 -1.8332372075862073 -0.27870412561528474 L -2.2023343737096477 0.000824552626582431 Q -2.2262499568277976 0.018936562015904324 -2.23439189405138 0.031374763583946086 Q -2.242533831274963 0.043812965151987904 -2.2378623501519628 0.0590912917657716 Q -2.2331908690289626 0.07436961837955541 -2.2144751259933297 0.09908238760164323 Q -2.2126639250543976 0.10147394591345815 -2.2174470416780276 0.10509634779132249 Q -2.2222301583016577 0.10871874966918688 -2.22404135924059 0.1063271913573719 L -2.480024425276339 -0.23167971671247428 Q -2.486061761739446 -0.23965157775185741 -2.4788870868040007 -0.24508518056865397 L -2.3740688022728262 -0.32697612773585744 M -2.30454540653138 -1.3056341675796483 Q -2.2990111833100535 -1.3079520056534852 -2.2982385706187745 -1.3061072645797096 L -2.2294760410949515 -1.1419253090136812 Q -2.2209773014908833 -1.1216331572021496 -2.27389449004576 -1.0344206514736265 Q -2.326811678600636 -0.9472081457451034 -2.4304864786806766 -0.8116333109550009 Q -2.4264736573786734 -0.8046406530055379 -2.4206790621940817 -0.790805094952221 Q -2.405613114714143 -0.7548326440135967 -2.400354583720799 -0.7396884090777525 L -2.1863646191628296 -0.8293114812661061 Q -2.157771132519308 -0.8412869779809292 -2.1467894767310756 -0.8513071195043206 Q -2.1358078209428437 -0.8613272610277121 -2.136797410270177 -0.8766331655407824 Q -2.13778699959751 -0.8919390700538528 -2.1501488026579727 -0.9214549272342625 Q -2.1509214153492513 -0.923299668308038 -2.1453871921279246 -0.9256175063818748 Q -2.139852968906598 -0.9279353444557115 -2.139080356215319 -0.9260906033819358 Q -2.1263322468092167 -0.8956523756646384 -2.119914796778955 -0.8777410291181308 L -2.091477885047244 -0.8072545619690185 L -2.062355151278676 -0.7403078191218485 Q -2.0537066538289994 -0.7222467147297319 -2.040572238077258 -0.6908861164755468 Q -2.039413319040339 -0.6881190048648833 -2.0449475422616663 -0.6858011667910466 Q -2.050481765482993 -0.6834833287172098 -2.0516406845199113 -0.6862504403278733 Q -2.0640024875803737 -0.7157662975082829 -2.074215782276585 -0.7272091385649587 Q -2.0844290769727962 -0.7386519796216345 -2.099928134658686 -0.7381235755627453 Q -2.115427192344576 -0.7375951715038561 -2.1430983084512105 -0.7260059811346724 L -2.570155867030262 -0.5471461431036045 Q -2.597826983136896 -0.5355569527344208 -2.6088086389251277 -0.5255368112110295 Q -2.61979029471336 -0.5155166696876381 -2.6190687374816513 -0.4995564267333041 Q -2.618347180249942 -0.48359618377897007 -2.606371683535119 -0.4550026971354483 Q -2.60559907084384 -0.45315795606167264 -2.6111332940651666 -0.4508401179878359 Q -2.6166675172864937 -0.4485222799139992 -2.6174401299777728 -0.4503670209877748 L -2.636991995759776 -0.49963896578846767 Q -2.652917346585415 -0.5428406231765854 -2.6633476179176805 -0.567744627672556 Q -2.6745505019412246 -0.5944933732423022 -2.690838335649269 -0.6256174229964568 Q -2.696010075988191 -0.6353771925565832 -2.703692807573769 -0.6511323706064803 Q -2.7113755391593477 -0.6668875486563773 -2.7206468914546944 -0.6890244415416846 Q -2.7561870752535245 -0.7738825309353622 -2.7447961327225756 -0.8334035056271178 Q -2.7334051901916268 -0.8929244803188736 -2.6780629579783586 -0.9161028610572409 Q -2.63563391328152 -0.9338729529566558 -2.5860777730543276 -0.9242714444406546 Q -2.536521632827135 -0.9146699359246533 -2.495156213314277 -0.8832072267513281 Q -2.4098420333175703 -1.0056714692529236 -2.365407421035887 -1.08336841405371 Q -2.3209728087542034 -1.1610653588544966 -2.307413785995027 -1.2128210629055105 Q -2.29385476323585 -1.2645767669565242 -2.3093070170614283 -1.3014715884320363 Q -2.3100796297527073 -1.3033163295058117 -2.30454540653138 -1.3056341675796483 M -2.4458196151900826 -0.7835282415762586 Q -2.459726643633103 -0.8167335809042193 -2.4779851527972974 -0.8318539923768291 Q -2.4962436619614916 -0.8469744038494389 -2.5248175767410372 -0.8453066526176077 Q -2.553391491520583 -0.8436389013857766 -2.5985876478280847 -0.8247098904494432 Q -2.6742220318528847 -0.7930327701070079 -2.6935441662010593 -0.7589203805068775 Q -2.7128663005492344 -0.7248079909067472 -2.695482514995459 -0.6833013167467961 Q -2.6823480992437174 -0.6519407184926109 -2.663104252351448 -0.6448221261607735 Q -2.6438604054591783 -0.6377035338289362 -2.6115774366681057 -0.651224255926317 L -2.4271033292905453 -0.7284855250542082 Q -2.432685199438341 -0.7521676433220732 -2.4458196151900826 -0.7835282415762586 M -2.3359126319268726 -1.4534238319006032 Q -2.37251172531793 -1.3772069941089926 -2.4430336221063764 -1.330977543827168 Q -2.513555518894823 -1.2847480935453435 -2.601177363283358 -1.2765987140627468 Q -2.7037347493290294 -1.2670602358047078 -2.781734445870533 -1.3120301962164462 Q -2.859734142412037 -1.3570001566281846 -2.904122581846212 -1.434723489319202 Q -2.948511021280387 -1.5124468220102192 -2.956382581007895 -1.597081558067327 Q -2.965180206585698 -1.691673321895859 -2.927539107124984 -1.7674849148839278 Q -2.8898980076642697 -1.8432965078719967 -2.8207770584565073 -1.8883913454991346 Q -2.751656109248745 -1.9334861831262726 -2.6700084815230647 -1.941079923098692 Q -2.579399528803102 -1.9495071223363771 -2.4992810016588605 -1.9087514894957822 Q -2.4191624745146183 -1.8679958566551873 -2.367896722225476 -1.791916472836519 Q -2.316630969936333 -1.7158370890178507 -2.3079259509435595 -1.622241027966461 Q -2.2993135385358157 -1.5296406696922138 -2.3359126319268726 -1.4534238319006032 M -2.377541839730689 -1.7498424700757806 Q -2.4140231730216315 -1.7911415296451603 -2.478569761218772 -1.8102461875093772 Q -2.543116349415912 -1.8293508453735943 -2.6297424910273044 -1.8212940724760274 Q -2.7213471465244092 -1.8127742666533129 -2.7909426134864104 -1.7781806114786853 Q -2.860538080448411 -1.7435869563040578 -2.8964537453046875 -1.6870178391292985 Q -2.932369410160964 -1.6304487219545394 -2.925794342623869 -1.5597538247774259 Q -2.917367143386184 -1.4691448720574636 -2.844623780485481 -1.426698987052005 Q -2.7718804175847778 -1.3842531020465465 -2.6494089759962574 -1.3956437120051757 Q -2.5528258066134404 -1.4046265507530378 -2.479386438420414 -1.441084186433497 Q -2.4059470702273873 -1.477541822113956 -2.367901089939282 -1.5328025982930606 Q -2.3298551096511764 -1.5880633744721653 -2.3358745376780945 -1.652784054986424 Q -2.3410605064397467 -1.7085434105064008 -2.377541839730689 -1.7498424700757806 M -2.7921277362920742 -2.872337901052538 Q -2.7862845852851965 -2.87097496807149 -2.7867388962788793 -2.8690272510691974 Q -2.7958251161525327 -2.8300729110233487 -2.7703731497937776 -2.8005187673464835 Q -2.7449211834350224 -2.7709646236696184 -2.6933066828742724 -2.7589253823370274 L -2.194691130287407 -2.642621767954263 Q -2.1917695547839684 -2.6419403014637393 -2.191817896018608 -2.63733078271174 Q -2.191866237253248 -2.6327212639597404 -2.194268265249223 -2.6312278579511306 L -2.820844632879892 -2.295789256226826 L -2.4420136759340116 -2.2074257679555465 Q -2.390399175373262 -2.1953865266229555 -2.35521214090722 -2.209769593246091 Q -2.3200251064411774 -2.2241526598692265 -2.3111660420643654 -2.2621331414139294 Q -2.3107117310706826 -2.2640808584162215 -2.3048685800638054 -2.2627179254351737 Q -2.299025429056928 -2.2613549924541254 -2.299479740050611 -2.2594072754518333 Q -2.305840093962168 -2.232139237419739 -2.3102212849159343 -2.217758515399387 L -2.323461540246513 -2.165397311834332 L -2.3365713225495295 -2.104790929266425 Q -2.3394591074946858 -2.088008179250098 -2.3467280833936086 -2.056844707213419 Q -2.3474095498841328 -2.0539231317099804 -2.35325270089101 -2.0552860646910283 Q -2.3590958518978873 -2.0566489976720765 -2.358414385407363 -2.059570573175515 Q -2.3484195435463446 -2.102420347225949 -2.372816691912423 -2.134295559407259 Q -2.397213840278502 -2.166170771588569 -2.4488283408392517 -2.1782100129211597 L -2.8607704868241037 -2.274296788085045 Q -2.903325524261132 -2.2503370554335076 -2.921810768202377 -2.2305179798639294 Q -2.9402960121436226 -2.2106989042943512 -2.945974899564656 -2.186352441765696 Q -2.946429210558339 -2.1844047247634033 -2.9522723615652158 -2.1857676577444516 Q -2.9581155125720935 -2.1871305907254994 -2.9576612015784107 -2.189078307727792 L -2.9471468122099282 -2.229753209279092 Q -2.943219932249845 -2.2421862142971514 -2.9375410448288113 -2.266532676825807 L -2.9212510855700162 -2.3407730784097613 Q -2.9190447671153836 -2.35463425292265 -2.914501657178557 -2.374111422945574 Q -2.9126844132038263 -2.381902290954744 -2.9078803572118757 -2.384889102971963 Q -2.903076301219926 -2.387875914989183 -2.8881445857366117 -2.3946614785417077 Q -2.8618841967639455 -2.405992496633843 -2.8525032402768864 -2.410992262167136 L -2.385337896412442 -2.6573122603240353 L -2.699894192282671 -2.730683485803787 Q -2.7524825513445674 -2.7429498826332193 -2.7876695858106095 -2.7285668160100833 Q -2.822856620276652 -2.7141837493869483 -2.831715684653464 -2.6762032678422454 Q -2.8321699956471464 -2.674255550839953 -2.838013146654024 -2.675618483821001 Q -2.8438562976609014 -2.676981416802049 -2.8434019866672187 -2.6789291338043415 L -2.832660441801895 -2.7205778938567877 Q -2.82344374890068 -2.751287054899784 -2.8184463279701704 -2.7727119419250013 Q -2.8139032180333436 -2.792189111947925 -2.807673337149348 -2.827702328982872 L -2.798425198292634 -2.8717531170312935 Q -2.7979708872989515 -2.8737008340335857 -2.7921277362920742 -2.872337901052538 M -2.540245648676274 -3.0039577846953174 Q -2.538114803296863 -3.0016212278333847 -2.5409906705500647 -2.9975006225936216 Q -2.543866537803266 -2.9933800173538585 -2.5464852657033155 -2.9948436649157744 Q -2.579450107621421 -3.017850602941385 -2.6324404355692765 -3.0531956895020196 Q -2.6854307635171315 -3.088540776062654 -2.71336386111766 -3.1041530167230897 Q -2.7177284076177424 -3.106592429326283 -2.7150450537542303 -3.1113934304763737 Q -2.712361699890718 -3.1161944316264645 -2.707997153390635 -3.1137550190232712 Q -2.688793148790272 -3.1030216035692217 -2.6609838451138708 -3.152777433670163 Q -2.6164072204389006 -3.2263839859096666 -2.5603007305654595 -3.326768555411565 Q -2.5315156618477817 -3.378270204112539 -2.501061234085666 -3.4368579829549057 L -2.4687581319822565 -3.4967036978766672 Q -2.450218596197989 -3.5298742512772945 -2.446045198586896 -3.5475895766307763 Q -2.4418718009758025 -3.565304901984258 -2.452526027872857 -3.5769876862939203 Q -2.4555297825522846 -3.579812125676491 -2.452846428688772 -3.584613126826582 Q -2.4501630748252596 -3.589414127976673 -2.4466714376251937 -3.5874625978941186 Q -2.4219478061866146 -3.5702073943749104 -2.36604338120776 -3.534951965462704 Q -2.3101389562289056 -3.4996965365504975 -2.275222584228245 -3.480181235724953 Q -2.2726038563281956 -3.478717588163037 -2.275043268931389 -3.4743530416629547 Q -2.2774826815345817 -3.4699884951628723 -2.28058929195527 -3.4705792334247714 Q -2.3551215458661203 -3.495052548013697 -2.408731737262939 -3.478046743757607 Q -2.462341928659758 -3.4610409395015167 -2.491614879898075 -3.4086663815005265 Q -2.5057634729965947 -3.3833520118000475 -2.4994869906924553 -3.368960841941908 Q -2.493210508388316 -3.3545696720837688 -2.462658682887738 -3.337493783861417 L -2.0602474955801275 -3.1125799418470153 Q -2.033187307279616 -3.097455583707218 -2.018039281955553 -3.0958626842183765 Q -2.0028912566314903 -3.0942697847295353 -1.9902327072805512 -3.1066698302266227 Q -1.9775741579296122 -3.11906987572371 -1.9595225046659834 -3.151367519824321 Q -1.9580588571040676 -3.1539862477243705 -1.9528214013039684 -3.151058952600539 Q -1.9475839455038695 -3.148131657476707 -1.9490475930657853 -3.1455129295766575 Q -1.9666113638087754 -3.1140881947760635 -1.9777298060422028 -3.0962449819963553 L -2.0190969645552244 -3.024281392615624 L -2.0577425394269357 -2.9530878567936476 Q -2.0671151630603304 -2.9342688789726625 -2.0851668163239587 -2.9019712348720517 Q -2.0866304638858746 -2.899352506972002 -2.0918679196859737 -2.902279802095834 Q -2.097105375486073 -2.9052070972196655 -2.095641727924157 -2.907825825119715 Q -2.0780779571811667 -2.9392505599203096 -2.0739045595700736 -2.9569658852737915 Q -2.0697311619589804 -2.9746812106272733 -2.079217110425069 -2.9874294176266405 Q -2.088703058891157 -3.0001776246260077 -2.1148903378916524 -3.0148141002451663 L -2.5190473437992957 -3.2407037073008453 Q -2.548726259999857 -3.2572917130025583 -2.563592114285803 -3.255290119550073 Q -2.5784579685717484 -3.2532885260975877 -2.5921186791496296 -3.2288470656971255 Q -2.650176699105625 -3.124970858995161 -2.540245648676274 -3.0039577846953174 M -2.080061511318503 -3.4389590640014918 Q -2.0952281602725473 -3.4473984217676246 -2.1050799067969783 -3.4558803490496968 Q -2.111142520042782 -3.4610999966078952 -2.109837608153232 -3.4626156499193463 L -1.9451514859264643 -3.725933862631475 Q -1.9439519447478653 -3.7288597985434264 -1.9298693504219335 -3.720693983394206 Q -1.915786756096002 -3.7125281682449858 -1.905935009571571 -3.704046240962913 Q -1.8983567430143167 -3.6975216815151652 -1.8996616549038663 -3.696006028203714 L -2.0636953211858593 -3.4334456421473107 Q -2.0648948623644583 -3.4305197062353594 -2.080061511318503 -3.4389590640014918 M -1.358201802656556 -3.9558311217301227 Q -1.3558379456695566 -3.9576783304744216 -1.352944460474908 -3.958035742601171 Q -1.3500509752802587 -3.9583931547279203 -1.3494352390321591 -3.9576052023989203 Q -1.3092873349703855 -3.889987558255941 -1.2698802150920088 -3.8395586091999547 Q -1.2649543251072115 -3.8332549905679567 -1.265163105225862 -3.8286499486721586 Q -1.2653718853445128 -3.8240449067763604 -1.2724634563055108 -3.8185032805434638 L -1.620738385723415 -3.5463478588834243 Q -1.6231022427104145 -3.5445006501391254 -1.6267966601990123 -3.549228364113124 Q -1.63049107768761 -3.5539560780871224 -1.6281272207006108 -3.5558032868314213 Q -1.6029127461726176 -3.57550684677061 -1.594566118642619 -3.5883747840130535 Q -1.5862194911126204 -3.601242721255497 -1.591207905065066 -3.615746711266492 Q -1.596196319017512 -3.6302507012774874 -1.614668406460501 -3.653889271147481 L -1.899754289330633 -4.018711199474381 Q -1.9182263767736218 -4.042349769344374 -1.9307864458920159 -4.050302420709873 Q -1.9433465150104094 -4.058255072075371 -1.9585523493099544 -4.053352766163376 Q -1.973758183609499 -4.04845046025138 -1.9981847058084923 -4.0293626365602915 Q -2.0005485627954918 -4.027515427815993 -2.0042429802840895 -4.032243141789991 Q -2.0079373977726873 -4.03697085576399 -2.005573540785688 -4.0388180645082885 L -1.6714817532897799 -4.299890233702534 Q -1.6636022299997821 -4.306047596183531 -1.6580606037668852 -4.298956025222533 L -1.574591778111634 -4.195389837961761 Q -1.5733603056154348 -4.193813933303762 -1.577078307176834 -4.189639431610214 Q -1.580796308738233 -4.185464929916666 -1.583431469811532 -4.187213050655566 Q -1.6317514094653074 -4.223062505767959 -1.678934212914089 -4.221727193552167 Q -1.7261170163628705 -4.220391881336375 -1.774970060760857 -4.182216233954197 L -1.7986086306308504 -4.163744146511208 Q -1.822247200500844 -4.145272059068219 -1.8252739618815457 -4.126408371317827 Q -1.8283007232622475 -4.1075446835674345 -1.8116758445635572 -4.08626997068444 L -1.6860656499512314 -3.9255276955684844 L -1.6206656066442493 -3.9766338041607545 Q -1.5749643715622619 -4.012346506550533 -1.5628525743252615 -4.0471933768216175 Q -1.5507407770882609 -4.082040247092702 -1.5729072820198478 -4.110406530936695 Q -1.5747544907641466 -4.112770387923693 -1.570420752954648 -4.116156937288242 Q -1.5660870151451491 -4.119543486652789 -1.5642398064008503 -4.11717962966579 L -1.5096114964008827 -4.04564818380771 L -1.4792682041631002 -4.00844220826382 Q -1.456757267069713 -3.982883301574027 -1.4444425421077203 -3.9671242549940313 Q -1.443211069611521 -3.965548350336032 -1.4479387835855198 -3.9618539328474336 Q -1.4526664975595185 -3.958159515358836 -1.4538979700557177 -3.9597354200168358 Q -1.4791431562278028 -3.9920414655058267 -1.5184334564216375 -3.991162653422183 Q -1.557723756615472 -3.9902838413385395 -1.6042129440264592 -3.953955402700661 L -1.6688250350044416 -3.9034650303564904 L -1.5296686429339237 -3.7253878040025397 Q -1.5118122917390342 -3.7025371864615457 -1.4945245086466417 -3.698278952584645 Q -1.4772367255542491 -3.694020718707744 -1.4583258696582544 -3.708798388662135 L -1.4323234428012614 -3.7291176848494234 Q -1.3708631611392783 -3.777145112201195 -1.353532961615477 -3.831299190389871 Q -1.3362027620916754 -3.885453268578547 -1.3601221394763559 -3.9517922720797243 Q -1.361353611972555 -3.9533681767377242 -1.358201802656556 -3.9558311217301227 M -0.7833803599481289 -4.720908152527048 Q -0.7811141309224808 -4.715352596208972 -0.7829659830285061 -4.714597186533756 Q -0.8200030251490104 -4.699488993029435 -0.8294016219836479 -4.661635111094554 Q -0.8388002188182854 -4.623781229159673 -0.8187818624250607 -4.574707148350004 L -0.6253969855697574 -4.1006330092075505 Q -0.6242638710569335 -4.097855231048513 -0.6280528334578822 -4.095229633226264 Q -0.6318417958588309 -4.092604035404015 -0.6344490576400722 -4.093700477834824 L -1.270402759785664 -4.411001421305397 L -1.1234755779561465 -4.050816186683494 Q -1.1034572215629217 -4.001742105873825 -1.071377998430796 -3.981347904657811 Q -1.0392987752986702 -3.9609537034417968 -1.0031876592311786 -3.9756841921085093 Q -1.0013358071251535 -3.976439601783725 -0.9990695780995053 -3.9708840454656493 Q -0.9968033490738571 -3.965328489147574 -0.9986552011798824 -3.9645730794723577 Q -1.0245811306642354 -3.9539973440193332 -1.0388477262970324 -3.9492576975082256 L -1.0892254379973212 -3.9297875623304055 L -1.146255148446495 -3.905443936345696 Q -1.1616181865101012 -3.8980970280533476 -1.1912478202065044 -3.886010473249891 Q -1.1940255983655423 -3.884877358737067 -1.1962918273911904 -3.8904329150551424 Q -1.1985580564168385 -3.8959884713732182 -1.1957802782578006 -3.897121585886042 Q -1.155039531925246 -3.913740598740795 -1.143137267539273 -3.95207577974319 Q -1.1312350031533 -3.990410960745585 -1.1512533595465246 -4.0394850415552535 L -1.3110225058547147 -4.431151761979586 Q -1.3551754397580191 -4.452020840246975 -1.3820337173115236 -4.455644778278857 Q -1.408891994865028 -4.4592687163107385 -1.4320401461903431 -4.449826095370538 Q -1.4338919982963683 -4.449070685695323 -1.4361582273220166 -4.454626242013398 Q -1.4384244563476645 -4.460181798331473 -1.4365726042416394 -4.46093720800669 L -1.397306005177502 -4.475874885133214 Q -1.38489126165073 -4.479859121969105 -1.3617431103254147 -4.489301742909306 L -1.2917504351340647 -4.518933236620527 Q -1.2791651752294961 -4.525147030400052 -1.260646654169244 -4.532701127152213 Q -1.2532392457451433 -4.535722765853077 -1.2480247221826608 -4.533529880991458 Q -1.2428101986201783 -4.5313369961298395 -1.2286407752011481 -4.523077005816756 Q -1.2042128210349494 -4.508201688836802 -1.1947096999629971 -4.503438214275958 L -0.7236350554150377 -4.2646795929363 L -0.8456337179624263 -4.563753708059372 Q -0.866029779193259 -4.613753714922053 -0.8981090023253847 -4.634147916138067 Q -0.9301882254575105 -4.654542117354082 -0.9662993415250022 -4.63981162868737 Q -0.9681511936310274 -4.639056219012153 -0.9704174226566755 -4.64461177533023 Q -0.9726836516823236 -4.650167331648305 -0.9708317995762983 -4.650922741323521 L -0.9306392744591483 -4.666238123287653 Q -0.9002542310875288 -4.676472825985084 -0.8798838579212515 -4.6847823324124604 Q -0.8613653368609994 -4.69233642916462 -0.8287874086277616 -4.7077856554245345 L -0.7874984410798023 -4.7257082991699075 Q -0.785646588973777 -4.726463708845124 -0.7833803599481289 -4.720908152527048 M -0.28494049411035993 -4.169213983433108 Q -0.30096964151412864 -4.168956236448147 -0.3244756939220414 -4.168110364001227 Q -0.34798174632995416 -4.167264491554307 -0.37689244567931135 -4.164990406434731 L -0.4505861583252719 -4.158190647876179 Q -0.4704461549413949 -4.155625392643735 -0.5043414576268481 -4.152959223882852 Q -0.5063352989612866 -4.15280239042633 -0.5068057993308541 -4.158783914429645 Q -0.5072762997004215 -4.16476543843296 -0.5052824583659832 -4.164922271889483 Q -0.47338099701496833 -4.167431607193842 -0.4588192706479864 -4.1735924614538575 Q -0.4442575442810044 -4.179753315713873 -0.43991152317108684 -4.194639957393988 Q -0.4355655020611693 -4.2095265990741035 -0.4379180039090068 -4.23943421909068 L -0.4742249490939654 -4.7010084880131755 Q -0.4765774509418029 -4.730916108029752 -0.48315834880716607 -4.744441705365384 Q -0.4897392466725292 -4.757967302701016 -0.5046258883526448 -4.762313323810933 Q -0.5195125300327602 -4.766659344920852 -0.5504170707165558 -4.7642284263447525 Q -0.5534078327182135 -4.7639931761599685 -0.5538783330877809 -4.769974700163284 Q -0.5543488334573484 -4.775956224166599 -0.5513580714556908 -4.776191474351383 L -0.49844285936481125 -4.77935064028201 Q -0.4524276752162049 -4.780963968447589 -0.42551081720128614 -4.783081220110643 Q -0.3846370698452984 -4.786296305969354 -0.342004731339656 -4.792658987286245 Q -0.2903216901007794 -4.798730498490269 -0.27237711809083354 -4.800141999598972 Q -0.17168813070169303 -4.808062089153358 -0.09029318919453472 -4.7743409756330975 Q -0.00889824768737646 -4.740619862112837 0.03938009525307584 -4.675204255389945 Q 0.08765843819352825 -4.6097886486670525 0.09440227682399571 -4.524053471286201 Q 0.10200869946533697 -4.427352166565937 0.06348777602954514 -4.34959203245048 Q 0.024966852593753197 -4.271831898335023 -0.047124780286716794 -4.22553614832892 Q -0.11921641316718679 -4.1792403983228175 -0.20893927321691597 -4.172182892779305 Q -0.24084073456793081 -4.169673557474945 -0.28494049411035993 -4.169213983433108 M -0.11060857291183634 -4.23558891282088 Q -0.06430800388658553 -4.271831254190306 -0.04191135614677716 -4.33779063691952 Q -0.019514708406968673 -4.403750019648734 -0.026493797222219895 -4.492475959031244 Q -0.03315921912442621 -4.577214215744877 -0.06452911908628262 -4.64446136718182 Q -0.09589901904813902 -4.711708518618763 -0.14688788020511123 -4.747821342350991 Q -0.1978767413620835 -4.78393416608322 -0.26068274339689396 -4.778993912202761 Q -0.3224918247644852 -4.774132075050564 -0.34447999937139206 -4.760365442293924 Q -0.366468173978299 -4.746598809537285 -0.36340992157611024 -4.707718903515736 L -0.32812239385854786 -4.259104603267089 Q -0.3249857247280979 -4.219227776578321 -0.3027565147001838 -4.20442533686269 Q -0.28052730467226966 -4.18962289714706 -0.22071206463911686 -4.194327900842735 Q -0.15690914193708722 -4.199346571451454 -0.11060857291183634 -4.23558891282088 M 0.6453476966891772 -4.095637545586052 Q 0.6305001430941686 -4.101683217777244 0.6085434495270393 -4.110118477559798 Q 0.5865867559599101 -4.118553737342353 0.559098081401044 -4.127793476028958 L 0.48863595533060633 -4.150422854934128 Q 0.4693596370594365 -4.155847203181481 0.4371315358524901 -4.166680000262328 Q 0.4352357651932579 -4.167317223620025 0.4371474352663487 -4.173004535597722 Q 0.4390591053394394 -4.1786918475754184 0.44095487599867156 -4.1780546242177214 Q 0.47128720654638584 -4.167859050494571 0.48709854488486914 -4.167819301959924 Q 0.5029098832233525 -4.1677795534252775 0.5127431218795435 -4.179771526471044 Q 0.5225763605357345 -4.191763499516811 0.5321347109011884 -4.220200059405293 L 0.6796519182080243 -4.659070967017533 Q 0.689210268573478 -4.687507526906016 0.688457462764468 -4.702530285754308 Q 0.687704656955458 -4.717553044602599 0.6757126839096915 -4.72738628325879 Q 0.6637207108639249 -4.737219521914981 0.6343362656458268 -4.747096483959283 Q 0.6314926096569786 -4.748052318995828 0.6334042797300694 -4.753739630973525 Q 0.6353159498031601 -4.7594269429512215 0.6381596057920083 -4.758471107914676 L 0.6880789165828116 -4.740636803606092 Q 0.7310444183874539 -4.72408489571983 0.7566373222870879 -4.715482380390922 Q 0.7955006208013468 -4.702419301558136 0.8372155250113832 -4.6915626553565 Q 0.8871427855091157 -4.676890618715612 0.9042047214422051 -4.67115560849634 Q 0.9999411397334282 -4.6389758289326455 1.0616056709543513 -4.576049398958399 Q 1.1232702021752747 -4.5131229689841525 1.1420450655082222 -4.43401857905016 Q 1.1608199288411696 -4.354914189116167 1.1334193244602022 -4.273396050769185 Q 1.102513991611902 -4.181451173796426 1.0365965243697766 -4.125011936448785 Q 0.9706790571276515 -4.068572699101145 0.8862099417482754 -4.054238525004752 Q 0.8017408263688997 -4.03990435090836 0.7164311467034532 -4.068579402004721 Q 0.6860988161557389 -4.078774975727872 0.6453476966891772 -4.095637545586052 M 0.8317462838299978 -4.0883700348770216 Q 0.8885475445437603 -4.103564335825969 0.9350055385545035 -4.155467175753065 Q 0.9814635325652468 -4.207370015680161 1.0098199719827594 -4.291731810015992 Q 1.0369019646848785 -4.3723020630333576 1.0344004577948285 -4.446463997091735 Q 1.0318989509047785 -4.520625931150112 0.9991449222371452 -4.573834704919481 Q 0.9663908935695122 -4.627043478688849 0.9066741178036997 -4.6471160144563015 Q 0.8479052273675033 -4.666869938544906 0.8222805246401522 -4.662823383203028 Q 0.796655821912801 -4.65877682786115 0.7842299664377113 -4.621809300006123 L 0.6408547109559053 -4.195260901678891 Q 0.6281102438019669 -4.157345488494248 0.6427587430229048 -4.135014535299765 Q 0.6574072422438428 -4.112683582105283 0.714280362020807 -4.093566881374375 Q 0.7749450231162356 -4.073175733928074 0.8317462838299978 -4.0883700348770216 M 1.580306818104313 -3.7943734136968503 Q 1.5827932103047702 -3.79269476727026 1.584025880591856 -3.7900526991478722 Q 1.5852585508789416 -3.787410631025485 1.584699002070078 -3.7865818336253327 Q 1.5327662209771975 -3.72753112450208 1.4969550972099306 -3.6744880908923263 Q 1.4924787067390222 -3.667857711691107 1.4880338937075426 -3.666635567217164 Q 1.483589080676063 -3.665413422743222 1.4761299040746914 -3.6704493620229934 L 1.1098014532073277 -3.9177699355406808 Q 1.1073150610068705 -3.9194485819672713 1.1106723538600518 -3.9244213663681857 Q 1.1140296467132331 -3.9293941507691 1.1165160389136903 -3.9277155043425096 Q 1.1430375557185672 -3.909809942458876 1.157852862065095 -3.905840471731117 Q 1.1726681684116225 -3.9018710010033573 1.184925613140906 -3.9110908192612497 Q 1.1971830578701894 -3.9203106375191417 1.2139695221360958 -3.9451745595237138 L 1.4730406206399176 -4.328907755794278 Q 1.489827084905824 -4.35377167779885 1.4935167812291517 -4.3681725854453015 Q 1.4972064775524792 -4.382573493091753 1.4878520349989426 -4.395525110925544 Q 1.478497592445406 -4.408476728759336 1.4528048730406815 -4.425822741834105 Q 1.4503184808402243 -4.427501388260696 1.4536757736934054 -4.43247417266161 Q 1.4570330665465867 -4.437446957062525 1.459519458747044 -4.435768310635934 L 1.810929556411664 -4.198519615677791 Q 1.8192175304131881 -4.192924127589156 1.814181591133416 -4.185464950987784 L 1.7414191943548694 -4.074115799149787 Q 1.7403000967371423 -4.072458204349482 1.7351821622274406 -4.074706925398079 Q 1.7300642277177387 -4.0769556464466765 1.730914076744177 -4.080001587455997 Q 1.7501071492558242 -4.137024617606653 1.734280214698212 -4.181493799547735 Q 1.7184532801405998 -4.225962981488817 1.6670678413311508 -4.260655007638357 L 1.6422039193265785 -4.277441471904264 Q 1.6173399973220064 -4.29422793617017 1.5984626992046467 -4.291287253292278 Q 1.5795854010872867 -4.288346570414387 1.564477583247971 -4.265969040610272 L 1.4503296262398078 -4.0968943709791805 L 1.5191198104524575 -4.050451819843507 Q 1.5671900596612969 -4.017997988929421 1.6040737552432924 -4.017227923857699 Q 1.640957450825288 -4.016457858785977 1.6611012079443754 -4.046294565191464 Q 1.6627798543709662 -4.048780957391921 1.6673382400718044 -4.045703438943172 Q 1.6718966257726429 -4.042625920494422 1.670217979346052 -4.040139528293965 L 1.6190297891481804 -3.966107311089112 L 1.5930002437228827 -3.925765487072933 Q 1.575633179021827 -3.8964672778500242 1.5644422028445562 -3.879891329846976 Q 1.563323105226829 -3.8782337350466713 1.5583503208259146 -3.8815910278998524 Q 1.5533775364250002 -3.8849483207530335 1.554496634042727 -3.8866059155533383 Q 1.5774381352061326 -3.9205866089595873 1.5644804141096251 -3.9576891353423704 Q 1.5515226930131176 -3.9947916617251535 1.5026236464041256 -4.027805041448103 L 1.4346622595916285 -4.073688043774913 L 1.3082042287884672 -3.88637983134047 Q 1.2919773133314243 -3.86234470673605 1.293260401409011 -3.8445865062364173 Q 1.294543489486598 -3.8268283057367847 1.3144346270902556 -3.81339913432406 L 1.3417849412952851 -3.7949340236315625 Q 1.4064311385071728 -3.751289216540206 1.4632901781979692 -3.7515119393284966 Q 1.5201492178887657 -3.7517346621167866 1.5758725308859762 -3.7949540141319997 Q 1.5769916285037033 -3.7966116089323045 1.580306818104313 -3.7943734136968503 M 2.446057773814828 -3.538096526081167 Q 2.441535241399133 -3.5341535956292076 2.4395637761731535 -3.536414861837055 Q 2.4159061934613963 -3.563550056331224 2.3700999030919134 -3.567395022207095 Q 2.3242936127224305 -3.571239988082966 2.2704477194746455 -3.5508287220676467 L 1.7765188616470196 -3.365638864340241 Q 1.7728466849612297 -3.36376399944155 1.766275134207964 -3.371301553467708 Q 1.7597035834546981 -3.3788391074938664 1.7620614499898348 -3.3822214831977884 L 2.0022685785967083 -3.9299500066164987 Q 2.017574981734999 -3.96717518657534 2.0189369099248973 -3.99224299764064 Q 2.0202988381147953 -4.01731080870594 2.0058414264576108 -4.033893427563488 Q 2.003869961231631 -4.036154693771334 2.008392493647326 -4.040097624223295 Q 2.0129150260630206 -4.044040554675254 2.0148864912890003 -4.041779288467406 Q 2.0247438174188988 -4.030472957428169 2.0279329924682425 -4.025293269937148 Q 2.0395685831695425 -4.008903851734178 2.060597545579993 -3.984783678850473 Q 2.117112882058079 -3.919960714225513 2.1580496973829053 -3.876049700219218 Q 2.1693179339907465 -3.8646467688526918 2.1850896557985844 -3.846556639189912 Q 2.1870611210245645 -3.844295372982065 2.1825385886088693 -3.840352442530105 Q 2.1780160561931745 -3.836409512078146 2.176044590967195 -3.8386707782859935 Q 2.1563299387073975 -3.861283440364468 2.1360649374318115 -3.865505966066046 Q 2.115799936156225 -3.8697284917676247 2.0984635618960614 -3.8546139250351135 Q 2.0856497200515927 -3.8434422887545616 2.074788296217406 -3.8193792575179497 L 1.9103403806836714 -3.446489350069907 L 2.2543086435733484 -3.573905338566869 Q 2.281985345599857 -3.5847681266498554 2.297060453652173 -3.597911228156387 Q 2.320426871133263 -3.618283035491511 2.321837099486806 -3.6440563017957817 Q 2.323247327840349 -3.669829568100053 2.3002469002039185 -3.696211007191606 Q 2.2982754349779384 -3.698472273399453 2.3027979673936336 -3.702415203851413 Q 2.3073204998093284 -3.7063581343033722 2.309291965035308 -3.704096868095525 L 2.3407388083236946 -3.6665056982920237 Q 2.3668318106821795 -3.633533661231507 2.3885179281679565 -3.608659732945185 Q 2.4010038745991613 -3.594338380295485 2.4209117275135377 -3.574547539172895 L 2.448608841004543 -3.544300722740974 Q 2.4505803062305227 -3.5420394565331264 2.446057773814828 -3.538096526081167 M 2.140414796360292 -2.9771165002075284 Q 2.1171016011829753 -2.965605855976021 2.108560863967086 -2.9569279640771136 Q 2.1000201267511973 -2.948250072178206 2.101524727826315 -2.9361675982756994 Q 2.1030293289014326 -2.9240851243731925 2.1145399731329397 -2.9007719291958756 L 2.1295923540510646 -2.870285443194769 Q 2.1641242867455857 -2.800345857662818 2.2265706067861455 -2.767608919605144 Q 2.2890169268267053 -2.7348719815474705 2.361091507518557 -2.7492683289347006 Q 2.3628848302245045 -2.750153763106355 2.364655698567813 -2.74656711769446 Q 2.3655411327394673 -2.7447737949885127 2.3653029334245748 -2.7418680659773376 Q 2.365064734109682 -2.7389623369661624 2.3641680727567085 -2.738519619880335 Q 2.2714141450398646 -2.702760580560206 2.2122344957435987 -2.6735412528956113 Q 2.205061204919809 -2.669999516208994 2.2003733803840055 -2.671588321144007 Q 2.1956855558482022 -2.6731771260790196 2.192143819161585 -2.6803504169028094 L 1.9831813546511485 -3.103574575506409 Q 1.982295920479494 -3.1053678982123563 1.9876758885973365 -3.1080242007273196 Q 1.9930558567151788 -3.1106805032422824 1.9939412908868333 -3.108887180536335 Q 2.0081082376333037 -3.0801940172411757 2.0190109421426667 -3.069406013052193 Q 2.0299136466520293 -3.05861800886321 2.045350180242198 -3.0601057691663485 Q 2.060786713832367 -3.061593529469487 2.0876865544215786 -3.074875042044303 L 2.5028407608484144 -3.2798530527822947 Q 2.5297406014376262 -3.2931345653571107 2.539858916407209 -3.304264242000047 Q 2.5499772313767917 -3.3153939186429833 2.548268112530739 -3.3312787829096386 Q 2.5465589936846866 -3.347163647176294 2.5328347640240434 -3.3749601491184795 Q 2.531949329852389 -3.376753471824427 2.5373292979702313 -3.3794097743393903 Q 2.5427092660880737 -3.3820660768543536 2.543594700259728 -3.380272754148406 L 2.5652766102839415 -3.334100308060919 Q 2.583848273526045 -3.291968451652473 2.5971297861008606 -3.265068611063261 Q 2.6104112986756767 -3.238168770474049 2.632569607329675 -3.197807782408912 L 2.656044840059836 -3.152520770493079 Q 2.6573729913173176 -3.149830786434158 2.6519930231994753 -3.147174483919195 Q 2.646613055081633 -3.144518181404232 2.6452849038241513 -3.147208165463153 Q 2.631560674163508 -3.1750046674053385 2.619988280434745 -3.186019643727895 Q 2.6084158867059815 -3.197034620050451 2.593200711658726 -3.195098529070825 Q 2.5779855366114712 -3.1931624380912 2.5510856960222594 -3.179880925516384 L 2.140414796360292 -2.9771165002075284 M 2.293630178191839 -2.4507687644235205 Q 2.3236471120924724 -2.529809789715485 2.3900031964663584 -2.5818421841113395 Q 2.4563592808402444 -2.6338745785071938 2.5429769718711404 -2.6494108457704795 Q 2.64435904205503 -2.6675953404081887 2.7258850214693675 -2.6293884734791537 Q 2.807411000883705 -2.5911816065501183 2.858218504862125 -2.5174941073424315 Q 2.9090260088405446 -2.4438066081347447 2.924032630628946 -2.3601417929344475 Q 2.9408047373336292 -2.266634058298821 2.9097152372436486 -2.1879086304869944 Q 2.878625737153668 -2.109183202675168 2.813569542203453 -2.058399922960289 Q 2.748513347253238 -2.0076166432454103 2.6678014078835397 -1.993139666931894 Q 2.578230841022045 -1.9770737541937233 2.4949503257153878 -2.0109020821195562 Q 2.411669810408731 -2.044730410045389 2.3541488113172093 -2.1161977778681456 Q 2.296627812225687 -2.187665145690902 2.280032254012632 -2.280188588382995 Q 2.2636132442912054 -2.371727739131556 2.293630178191839 -2.4507687644235205 M 2.360198264398145 -2.158937152189976 Q 2.4000441604404217 -2.12087398668068 2.465976119201935 -2.107300968819122 Q 2.5319080779634477 -2.093727950957565 2.617541477050811 -2.1090876697292225 Q 2.7080963358558385 -2.1253301309590213 2.7745141439963836 -2.1656900710209905 Q 2.8409319521369287 -2.2060500110829597 2.8719308517654807 -2.2654559722469623 Q 2.9029297513940326 -2.3248619334109644 2.890394808488427 -2.394746661401801 Q 2.874328895750257 -2.4843172282632957 2.798254021528469 -2.5204539618198734 Q 2.7221791473066803 -2.556590695376451 2.601111238252132 -2.534875230906177 Q 2.5056349197294403 -2.5177500272182365 2.435544766552206 -2.475207455274455 Q 2.365454613374972 -2.4326648833306734 2.3322223071219113 -2.3743822630987137 Q 2.298990000868851 -2.3160996428667544 2.310465652824687 -2.2521206665371154 Q 2.3203523683558687 -2.1970003176992723 2.360198264398145 -2.158937152189976 M 2.3624456350938754 -1.6578598044246688 Q 2.347289755032274 -1.6524238776813842 2.3392718579047056 -1.633663192042215 Q 2.331253960777137 -1.6149025064030458 2.3267308380226375 -1.5721410592742626 Q 2.3264152713188353 -1.5691577024978358 2.3204485577659817 -1.5697888359054404 Q 2.314481844213128 -1.5704199693130452 2.3147974109169303 -1.5734033260894718 Q 2.3191101558688954 -1.6141758687006373 2.3225239528568555 -1.6369430817519748 L 2.332669839525931 -1.7233552393670828 L 2.3393541770596453 -1.7960554431614009 Q 2.3404635028261853 -1.8160496772388466 2.344039925469278 -1.8498610540383498 Q 2.3443554921730803 -1.8528444108147764 2.350322205725934 -1.8522132774071718 Q 2.3562889192787875 -1.8515821439995672 2.355973352574985 -1.8485987872231404 Q 2.352607307734427 -1.8167763149412552 2.356054329960094 -1.801830812682189 Q 2.3595013521857604 -1.7868853104231224 2.3733949654321527 -1.7803878100607 Q 2.3872885786785445 -1.7738903096982777 2.417122146442812 -1.7707346426602544 L 2.8775535422713387 -1.722032181373431 Q 2.9073871100356063 -1.718876514335408 2.9218353861652684 -1.7223761310117083 Q 2.93628366229493 -1.7258757476880087 2.9433309832373906 -1.7402139926131714 Q 2.9503783041798513 -1.7545522375383344 2.953639160119142 -1.7853802575614106 Q 2.953954726822944 -1.7883636143378374 2.9599214403757976 -1.7877324809302328 Q 2.965888153928651 -1.7871013475226283 2.9655725872248486 -1.7841179907462015 L 2.959003123198866 -1.7315172099305964 Q 2.952175529222946 -1.6859827838279213 2.949335428888725 -1.6591325728400808 Q 2.9468108952583063 -1.6352657186286668 2.9463230182929077 -1.6021332273841704 Q 2.94595001483524 -1.589100159118387 2.9448406890687 -1.5691059250409412 Q 2.9437313633021605 -1.5491116909634957 2.940996451869207 -1.5232559322344639 Q 2.9302671839399284 -1.4218218018359547 2.8817968177657707 -1.367619646870095 Q 2.833326451591613 -1.313417491904235 2.7448202005576197 -1.322779304117037 Q 2.6831641605114673 -1.3293010159956182 2.643768758223242 -1.3656466110320031 Q 2.604373355935017 -1.4019922060683883 2.5878074457552263 -1.454526200966122 Q 2.5712415355754357 -1.5070601958638556 2.57681654734261 -1.559766165580728 Q 2.579656647676831 -1.5866163765685688 2.586732686996224 -1.6059794772384097 Q 2.586943064798759 -1.6079683817560277 2.591915326092803 -1.6074424372496905 Q 2.59489868286923 -1.607126870545888 2.5977242562937555 -1.6053196254538724 Q 2.600549829718281 -1.6035123803618567 2.5993449996569375 -1.6016286647455065 Q 2.59378935710269 -1.5871326364684424 2.591790767978609 -1.568238043551073 Q 2.586952078520307 -1.522493239645863 2.6265052641604334 -1.4876393229976914 Q 2.6660584498005595 -1.4527854063495198 2.7446201782464636 -1.4444754831493922 Q 2.823181906692368 -1.4361655599492646 2.8694671820136106 -1.4649565878648634 Q 2.915752457334853 -1.4937476157804621 2.922484547015969 -1.5573925603442327 Q 2.925429836251457 -1.5852372235908823 2.9135538458996155 -1.5965492018954481 Q 2.9016778555477742 -1.6078611802000138 2.8638886697130355 -1.6118583584481765 L 2.409423987437362 -1.6599296863273953 Q 2.377601515155477 -1.6632957311679533 2.3624456350938754 -1.6578598044246688 M 2.2726232008016787 -0.8062250595202516 Q 2.2716160819877635 -0.8033991593637247 2.269363866231237 -0.8015478019735767 Q 2.2671116504747113 -0.7996964445834287 2.266169683755869 -0.8000321508547338 Q 2.1960533423992232 -0.835636907204951 2.1357674723933187 -0.8571221085684748 Q 2.1282317386425804 -0.8598077587389154 2.125941973940548 -0.8638086308450098 Q 2.1236522092385153 -0.8678095029511044 2.1266735656802607 -0.8762872034206847 L 2.2750557375970972 -1.2926364931489636 Q 2.2760628564110124 -1.2954623933054903 2.281714656724066 -1.29344815567766 Q 2.2873664570371197 -1.2914339180498295 2.2863593382232046 -1.2886080178933028 Q 2.2756167375414424 -1.2584650828903505 2.2754588302017305 -1.2431280341106126 Q 2.2753009228620185 -1.2277909853308744 2.2872809089287056 -1.2182134108027398 Q 2.299260894995393 -1.208635836274605 2.327519896560661 -1.1985646481354533 L 2.7636504873846275 -1.0431326445212104 Q 2.791909488949895 -1.0330614563820586 2.806775554370212 -1.033071402177999 Q 2.821641619790529 -1.0330813479739396 2.8318580308137378 -1.0453644642643956 Q 2.842074441836946 -1.0576475805548515 2.852481336247403 -1.0868485488389616 Q 2.853488455061318 -1.0896744489954886 2.8591402553743714 -1.0876602113676581 Q 2.864792055687425 -1.0856459737398279 2.8637849368735098 -1.0828200735833011 L 2.7214454778401644 -0.6834261847941827 Q 2.718088415127114 -0.6740065176057601 2.7096107146575337 -0.6770278740475058 L 2.5836577285089026 -0.7197928746933941 Q 2.5817737950712183 -0.7204642872360043 2.5826782128445536 -0.7259808104609418 Q 2.5835826306178893 -0.7314973336858793 2.586744237045721 -0.7314321815908064 Q 2.646749607079453 -0.727032685356589 2.6858815135166285 -0.7534276450760532 Q 2.7250134199538043 -0.7798226047955175 2.745827208774718 -0.8382245413637376 L 2.75589839691387 -0.8664835429290053 Q 2.7659695850530217 -0.8947425444942732 2.7584239055063433 -0.9122942600850306 Q 2.7508782259596645 -0.929845975675788 2.7254451245509235 -0.9389100450010246 L 2.5332839139071024 -1.0073941243472568 L 2.5054202933887826 -0.9292108866833493 Q 2.485949329653089 -0.8745768169904982 2.494381769619477 -0.8386617232802869 Q 2.502814209585866 -0.8027466295700757 2.536725011464187 -0.7906612038030935 Q 2.539550911620714 -0.7896540849891783 2.537704527128536 -0.7844732680355458 Q 2.535858142636358 -0.7792924510819135 2.5330322424798313 -0.7802995698958286 L 2.448590944055333 -0.8114551010321264 L 2.4030408352795996 -0.826627035335927 Q 2.3703425542963528 -0.8361571151226145 2.351503219919507 -0.8428712405487157 Q 2.349619286481823 -0.8435426530913258 2.351633524109653 -0.8491944534043794 Q 2.3536477617374834 -0.854846253717433 2.355531695175168 -0.8541748411748228 Q 2.394152330647701 -0.8404108840513154 2.4268632960866032 -0.8621937383191777 Q 2.4595742615255056 -0.8839765925870399 2.4793809315325044 -0.9395526289987333 L 2.506908845779519 -1.0167938999437984 L 2.2940243673211684 -1.0926635172587422 Q 2.266707332474743 -1.102398999126589 2.2498270294265956 -1.096737253017595 Q 2.232946726378448 -1.091075506908601 2.2248897758671267 -1.0684683056563866 L 2.2138114689140598 -1.037383403934592 Q 2.187626379752265 -0.9639099998648957 2.2019911200038798 -0.9088949633975476 Q 2.216355860255494 -0.8538799269301994 2.272082092449214 -0.8106643389382306 Q 2.273966025886899 -0.8099929263956206 2.2726232008016787 -0.8062250595202516 M 1.7083971821022084 -0.21828022598068564 Q 1.7034807602774418 -0.22171952771809667 1.7046271941899123 -0.22335833499301883 L 1.8066598123997732 -0.36921218246109466 Q 1.819270585436947 -0.3872390624852388 1.9212644029015984 -0.38911288184350296 Q 2.0232582203662495 -0.39098670120176704 2.1932533999904824 -0.3757999008631547 Q 2.1970197320029023 -0.3829283469190786 2.20561798634643 -0.3952194014809951 Q 2.227973447639602 -0.42717614334197807 2.237964322576826 -0.43971338458512044 L 2.0478626786858505 -0.572699718431681 Q 2.0224611659245566 -0.5904694440749714 2.0081234302189253 -0.5943974632749583 Q 1.9937856945132941 -0.5983254824749453 1.9813770304605784 -0.5893102145129352 Q 1.968968366407863 -0.5802949465509251 1.9506254238083374 -0.5540740301521699 Q 1.949478989895867 -0.5524352228772478 1.9445625680711005 -0.5558745246146588 Q 1.939646146246334 -0.5593138263520698 1.9407925801588042 -0.5609526336269921 Q 1.959708739714565 -0.5879929536632084 1.9714192655204943 -0.602988405818734 L 2.0158031578318285 -0.6646898653095425 L 2.0568285919995355 -0.7250795478004379 Q 2.067473527486778 -0.7420408375058951 2.086962903998774 -0.7699005611795725 Q 2.0886825548674794 -0.7723587720919558 2.093598976692246 -0.7689194703545448 Q 2.0985153985170126 -0.7654801686171337 2.096795747648307 -0.7630219577047505 Q 2.0784528050487814 -0.7368010413059952 2.0742381773706766 -0.7220536037816334 Q 2.0700235496925723 -0.7073061662572716 2.0787522091764647 -0.6944878003858255 Q 2.087480868660357 -0.6816694345143794 2.1120629777841904 -0.6644729258273242 L 2.4914468619286794 -0.39907347509043833 Q 2.5160289710525126 -0.3818769664033831 2.530366706758144 -0.3779489472033961 Q 2.5447044424637753 -0.37402092800340914 2.5578094168133387 -0.3831592893060322 Q 2.570914391162902 -0.39229765060865524 2.588684116806193 -0.41769916336994933 Q 2.589830550718663 -0.41933797064487155 2.59474697254343 -0.4158986689074605 Q 2.5996633943681964 -0.41245936717004944 2.598516960455726 -0.4108205598951272 L 2.567317058137801 -0.3679653840659241 Q 2.5393102708760606 -0.3314192506551839 2.523833413057711 -0.3092953524437342 Q 2.5072101213268905 -0.28553264695736225 2.4896057387710426 -0.2551338687775182 Q 2.484119755889917 -0.24554721180921102 2.4749078627932626 -0.23063443119740656 Q 2.465695969696608 -0.2157216505856021 2.451938762746964 -0.19605596328653574 Q 2.3992028027733276 -0.12067082864011458 2.3428053246285048 -0.09849371298220733 Q 2.2864078464836814 -0.07631659732430007 2.2372436282360155 -0.11070961469841056 Q 2.199551060912805 -0.13707759468522873 2.1811861829140238 -0.18409600869601683 Q 2.1628213049152425 -0.23111442270680493 2.1673115733718364 -0.282891227254669 Q 2.018209358552924 -0.289564272743413 1.9287913761783688 -0.2856051783944804 Q 1.8393733938038137 -0.2816460840455479 1.788381054946333 -0.2654509805310944 Q 1.7373887160888524 -0.24925587701664076 1.7144600378394454 -0.21647973151819677 Q 1.713313603926975 -0.2148409242432746 1.7083971821022084 -0.21828022598068564 M 2.225202830051713 -0.3778575497064973 Q 2.204567019627247 -0.3483590187578977 2.2015429035583804 -0.32484615585262766 Q 2.198518787489514 -0.30133329294735767 2.2151971246167292 -0.2780721005731275 Q 2.231875461743945 -0.2548109081988973 2.272026239979539 -0.22672327734337383 Q 2.339217338251349 -0.1797194869320895 2.3783760579622872 -0.18161544858786538 Q 2.4175347776732257 -0.18351141024364148 2.4433295407038083 -0.22038457392939093 Q 2.462818917215804 -0.24824429760306832 2.4585529000411803 -0.26831420287105134 Q 2.4542868828665565 -0.28838410813903437 2.4256077555554176 -0.30844670160726545 L 2.2617270280631976 -0.4230900928543004 Q 2.244692206563709 -0.4057172733801747 2.225202830051713 -0.3778575497064973" fill="#3b1a0f" fill-rule="nonzero"></path></g><g transform="matrix(1,0,0,1,0,0)"><g clip-path="url(#SvgjsClipPath1005)"><g clip-path="url(#SvgjsClipPath1003e03f06f0-1bd6-4602-823d-323bfda53c99)"><path d=" M -0.9461278630819554 -2.677859466508465 L -1.0075438847414966 -3.2888083878537073 L -0.43753897783594864 -3.0379259464340116 L -0.9461278630819554 -2.677859466508465 Z" fill="#2c7b5b" transform="matrix(1,0,0,1,0,0)" fill-rule="evenodd"></path></g><g clip-path="url(#SvgjsClipPath1003e03f06f0-1bd6-4602-823d-323bfda53c99)"><path d=" M -0.9039796129234465 -1.6574704007662797 L -1.5398160724575227 -2.370377946304486 L -0.5844557355313225 -2.577506489940587 L -0.9039796129234465 -1.6574704007662797 Z" fill="#8cc63e" transform="matrix(1,0,0,1,0,0)" fill-rule="evenodd"></path></g><g clip-path="url(#SvgjsClipPath1003e03f06f0-1bd6-4602-823d-323bfda53c99)"><path d=" M -1.0649457873383232 -1.249234492088151 L -1.6305351632748846 -1.372066535407234 L -1.2359472594099876 -1.8140210442121694 L -1.0649457873383232 -1.249234492088151 Z" fill="#2c7b5b" transform="matrix(1,0,0,1,0,0)" fill-rule="evenodd"></path></g><g clip-path="url(#SvgjsClipPath1003e03f06f0-1bd6-4602-823d-323bfda53c99)"><path d=" M -0.09112050272363348 -0.9674433338855493 L -0.92083891298685 -0.6025599110847439 L -0.8285141745444021 -1.5177790573837933 L -0.09112050272363348 -0.9674433338855493 Z" fill="#8cc63e" transform="matrix(1,0,0,1,0,0)" fill-rule="evenodd"></path></g><g clip-path="url(#SvgjsClipPath1003e03f06f0-1bd6-4602-823d-323bfda53c99)"><path d=" M 0.28460104154650256 -0.6752154661198881 L 0 -0.1875 L -0.28460104154650234 -0.6752154661198881 L 0.28460104154650256 -0.6752154661198881 Z" fill="#2c7b5b" transform="matrix(1,0,0,1,0,0)" fill-rule="evenodd"></path></g><g clip-path="url(#SvgjsClipPath1003e03f06f0-1bd6-4602-823d-323bfda53c99)"><path d=" M 0.8289155864506736 -1.5177790573837933 L 0.9208389129868504 -0.6025599110847439 L 0.09152191462990489 -0.9674433338855493 L 0.8289155864506736 -1.5177790573837933 Z" fill="#8cc63e" transform="matrix(1,0,0,1,0,0)" fill-rule="evenodd"></path></g><g clip-path="url(#SvgjsClipPath1003e03f06f0-1bd6-4602-823d-323bfda53c99)"><path d=" M 1.235947259409988 -1.8140210442121694 L 1.6305351632748848 -1.372066535407234 L 1.0649457873383228 -1.249234492088151 L 1.235947259409988 -1.8140210442121694 Z" fill="#2c7b5b" transform="matrix(1,0,0,1,0,0)" fill-rule="evenodd"></path></g><g clip-path="url(#SvgjsClipPath1003e03f06f0-1bd6-4602-823d-323bfda53c99)"><path d=" M 0.5844557355313227 -2.577506489940587 L 1.5398160724575227 -2.370377946304486 L 0.9039796129234468 -1.6574704007662797 L 0.5844557355313227 -2.577506489940587 Z" fill="#8cc63e" transform="matrix(1,0,0,1,0,0)" fill-rule="evenodd"></path></g><g clip-path="url(#SvgjsClipPath1003e03f06f0-1bd6-4602-823d-323bfda53c99)"><path d=" M 0.4379403897422205 -3.0379259464340116 L 1.0079452966477684 -3.2888083878537073 L 0.9465292749882273 -2.677859466508465 L 0.4379403897422205 -3.0379259464340116 Z" fill="#2c7b5b" transform="matrix(1,0,0,1,0,0)" fill-rule="evenodd"></path></g><g clip-path="url(#SvgjsClipPath1003e03f06f0-1bd6-4602-823d-323bfda53c99)"><path d=" M 0 -3.52042305777237 L 0.5029691185582057 -2.6585916950074324 L -0.5025677066519338 -2.6585916950074324 L 0 -3.52042305777237 Z" fill="#8cc63e" transform="matrix(1,0,0,1,0,0)" fill-rule="evenodd"></path></g></g></g></g><defs><clipPath id="SvgjsClipPath1005"><path d=" M -1.6305351632748848 -3.52042305777237 h 3.2610703265497696 v 3.33292305777237 h -3.2610703265497696 Z"></path></clipPath><clipPath id="SvgjsClipPath1003e03f06f0-1bd6-4602-823d-323bfda53c99"><path d=" M -1.6305351632748846 -3.52042305777237 L 1.6305351632748848 -3.52042305777237 L 1.6305351632748848 -0.1875 L -1.6305351632748841 -0.1875 Z"></path></clipPath></defs></svg>